<?xml version="1.0" encoding="utf-8"?>
<!-- Generator: Adobe Illustrator 28.2.0, SVG Export Plug-In . SVG Version: 6.00 Build 0)  -->
<svg version="1.1" id="Capa_1" xmlns="http://www.w3.org/2000/svg" xmlns:xlink="http://www.w3.org/1999/xlink" x="0px" y="0px"
	 viewBox="0 0 405.8 239.8" style="enable-background:new 0 0 405.8 239.8;" xml:space="preserve">
<style type="text/css">
	.st0{fill:#0078FF;}
</style>
<g>
	<g>
		<g>
			<g>
				<g>
					<path class="st0" d="M170.8,68.6c2.6,2.2,3.9,5.1,3.9,8.9c0,3.8-1.3,6.7-3.9,8.9c-2.6,2.1-6.1,3.2-10.6,3.2l-8.6,0l0,10.5l-5,0
						l0.1-34.8l13.6,0C164.7,65.4,168.2,66.5,170.8,68.6z M167.2,83.3c1.7-1.3,2.5-3.3,2.5-5.8c0-2.5-0.8-4.5-2.5-5.8
						c-1.7-1.3-4.1-2-7.2-2l-8.5,0l0,15.6l8.5,0C163.1,85.3,165.5,84.7,167.2,83.3z"/>
					<path class="st0" d="M189.2,98.3c-2.8-1.5-5-3.7-6.6-6.4c-1.6-2.7-2.4-5.8-2.4-9.1c0-3.3,0.8-6.4,2.4-9.1
						c1.6-2.7,3.8-4.8,6.7-6.4c2.8-1.5,6-2.3,9.5-2.3c3.5,0,6.6,0.8,9.4,2.3c2.8,1.5,5,3.7,6.6,6.4c1.6,2.7,2.4,5.7,2.4,9.1
						c0,3.4-0.8,6.4-2.4,9.1c-1.6,2.7-3.8,4.8-6.6,6.3c-2.8,1.5-6,2.3-9.5,2.3C195.2,100.7,192,99.9,189.2,98.3z M205.6,94.5
						c2-1.2,3.7-2.8,4.8-4.8c1.2-2,1.8-4.3,1.8-6.8c0-2.5-0.6-4.8-1.7-6.8c-1.2-2-2.8-3.6-4.8-4.8c-2-1.2-4.3-1.7-6.9-1.8
						c-2.6,0-4.9,0.6-6.9,1.7c-2.1,1.2-3.7,2.8-4.9,4.8c-1.2,2-1.8,4.3-1.8,6.8c0,2.5,0.6,4.8,1.7,6.8c1.2,2,2.8,3.6,4.9,4.8
						c2.1,1.2,4.4,1.7,6.9,1.8C201.2,96.3,203.5,95.7,205.6,94.5z"/>
					<path class="st0" d="M223.9,65.5l5,0L228.8,96l13.2,0l0,4.3l-18.2,0L223.9,65.5z"/>
				</g>
				<g>
					<path class="st0" d="M316.5,100.3L309,89.6c-0.9,0.1-1.7,0.1-2.2,0.1h-8.6v10.6h-5V65.5h13.6c4.5,0,8.1,1.1,10.6,3.2
						c2.6,2.2,3.9,5.1,3.9,8.9c0,2.7-0.7,5-2,6.9c-1.3,1.9-3.2,3.3-5.7,4.1l8.3,11.7H316.5z M313.9,83.4c1.7-1.4,2.5-3.3,2.5-5.8
						c0-2.5-0.8-4.4-2.5-5.8c-1.7-1.3-4.1-2-7.2-2h-8.5v15.7h8.5C309.8,85.4,312.2,84.8,313.9,83.4z"/>
					<path class="st0" d="M333.7,65.5h5v34.8h-5V65.5z"/>
					<path class="st0" d="M382.3,65.5v34.8h-4.1l-20.9-26v26h-5V65.5h4.1l20.9,26v-26H382.3z"/>
				</g>
				<polygon class="st0" points="267.2,63.4 249,100.3 254.1,100.3 267.2,73.4 280.3,100.3 285.5,100.3 				"/>
			</g>
		</g>
		<g>
			<g>
				<path class="st0" d="M153.2,121.7c0.7,0.3,1.2,0.7,1.6,1.3c0.4,0.6,0.5,1.2,0.5,2c0,0.8-0.2,1.4-0.5,2c-0.4,0.6-0.9,1-1.6,1.3
					c-0.7,0.3-1.5,0.5-2.4,0.5h-2.4v3h-2v-10.5h4.3C151.7,121.2,152.5,121.4,153.2,121.7z M152.7,126.5c0.4-0.4,0.7-0.9,0.7-1.5
					s-0.2-1.2-0.7-1.5c-0.4-0.4-1.1-0.5-1.9-0.5h-2.3v4.2h2.3C151.6,127.1,152.2,126.9,152.7,126.5z"/>
				<path class="st0" d="M161.1,131.2c-0.9-0.5-1.5-1.1-2-1.9c-0.5-0.8-0.7-1.7-0.7-2.8s0.2-1.9,0.7-2.8c0.5-0.8,1.2-1.5,2-1.9
					c0.9-0.5,1.8-0.7,2.9-0.7c1.1,0,2,0.2,2.9,0.7c0.9,0.5,1.5,1.1,2,1.9c0.5,0.8,0.7,1.7,0.7,2.8s-0.2,2-0.7,2.8
					c-0.5,0.8-1.2,1.5-2,1.9c-0.9,0.5-1.8,0.7-2.9,0.7C162.9,131.9,161.9,131.7,161.1,131.2z M165.8,129.7c0.6-0.3,1-0.8,1.3-1.3
					c0.3-0.6,0.5-1.2,0.5-1.9s-0.2-1.3-0.5-1.9c-0.3-0.6-0.8-1-1.3-1.3c-0.6-0.3-1.2-0.5-1.9-0.5c-0.7,0-1.3,0.2-1.9,0.5
					c-0.6,0.3-1,0.8-1.3,1.3c-0.3,0.6-0.5,1.2-0.5,1.9s0.2,1.3,0.5,1.9c0.3,0.6,0.8,1,1.3,1.3c0.6,0.3,1.2,0.5,1.9,0.5
					C164.7,130.2,165.3,130,165.8,129.7z"/>
				<path class="st0" d="M173.3,121.2h2v8.8h5.5v1.7h-7.4V121.2z"/>
				<path class="st0" d="M190.8,129.3h-5.2l-1,2.4h-2l4.7-10.5h1.9l4.7,10.5h-2L190.8,129.3z M190.2,127.8l-2-4.6l-2,4.6H190.2z"/>
				<path class="st0" d="M203.8,131.7l-2.1-3.1c-0.1,0-0.2,0-0.4,0h-2.4v3.1h-2v-10.5h4.3c0.9,0,1.7,0.2,2.4,0.5s1.2,0.7,1.6,1.3
					c0.4,0.6,0.5,1.2,0.5,2c0,0.8-0.2,1.5-0.6,2c-0.4,0.6-0.9,1-1.7,1.3l2.4,3.5H203.8z M203.1,123.4c-0.4-0.4-1.1-0.5-1.9-0.5h-2.3
					v4.2h2.3c0.9,0,1.5-0.2,1.9-0.5c0.4-0.4,0.7-0.9,0.7-1.6S203.5,123.8,203.1,123.4z"/>
				<path class="st0" d="M153.4,152.7l-2.1-3.1c-0.1,0-0.2,0-0.4,0h-2.4v3.1h-2v-10.5h4.3c0.9,0,1.7,0.2,2.4,0.5s1.2,0.7,1.6,1.3
					c0.4,0.6,0.5,1.2,0.5,2c0,0.8-0.2,1.5-0.6,2c-0.4,0.6-0.9,1-1.7,1.3l2.4,3.5H153.4z M152.7,144.4c-0.4-0.4-1.1-0.5-1.9-0.5h-2.3
					v4.2h2.3c0.9,0,1.5-0.2,1.9-0.5c0.4-0.4,0.7-0.9,0.7-1.6S153.1,144.8,152.7,144.4z"/>
				<path class="st0" d="M167,151.1v1.6h-7.9v-10.5h7.7v1.6h-5.7v2.7h5.1v1.6h-5.1v2.9H167z"/>
				<path class="st0" d="M171.7,152.5c-0.8-0.2-1.4-0.5-1.8-0.9l0.7-1.5c0.4,0.3,1,0.6,1.6,0.8c0.6,0.2,1.3,0.3,1.9,0.3
					c0.8,0,1.4-0.1,1.7-0.4s0.6-0.6,0.6-1c0-0.3-0.1-0.5-0.3-0.7c-0.2-0.2-0.5-0.3-0.8-0.5c-0.3-0.1-0.8-0.2-1.3-0.4
					c-0.8-0.2-1.4-0.4-1.9-0.6c-0.5-0.2-0.9-0.5-1.3-0.9c-0.4-0.4-0.5-1-0.5-1.6c0-0.6,0.2-1.1,0.5-1.6c0.3-0.5,0.8-0.9,1.4-1.1
					c0.6-0.3,1.4-0.4,2.3-0.4c0.6,0,1.3,0.1,1.9,0.2s1.2,0.4,1.6,0.7l-0.6,1.5c-0.5-0.3-0.9-0.5-1.4-0.6c-0.5-0.1-1-0.2-1.5-0.2
					c-0.8,0-1.3,0.1-1.7,0.4c-0.4,0.3-0.6,0.6-0.6,1c0,0.3,0.1,0.5,0.3,0.7c0.2,0.2,0.5,0.3,0.8,0.5s0.8,0.2,1.3,0.4
					c0.8,0.2,1.4,0.4,1.9,0.6s0.9,0.5,1.3,0.9c0.4,0.4,0.5,0.9,0.5,1.6c0,0.6-0.2,1.1-0.5,1.6c-0.3,0.5-0.8,0.8-1.4,1.1
					c-0.6,0.3-1.4,0.4-2.3,0.4C173.3,152.9,172.5,152.8,171.7,152.5z"/>
				<path class="st0" d="M189.8,151.1v1.6h-7.9v-10.5h7.7v1.6h-5.7v2.7h5.1v1.6h-5.1v2.9H189.8z"/>
				<path class="st0" d="M200.4,150.3h-5.2l-1,2.4h-2l4.7-10.5h1.9l4.7,10.5h-2L200.4,150.3z M199.8,148.8l-2-4.6l-2,4.6H199.8z"/>
				<path class="st0" d="M213.4,152.7l-2.1-3.1c-0.1,0-0.2,0-0.4,0h-2.4v3.1h-2v-10.5h4.3c0.9,0,1.7,0.2,2.4,0.5s1.2,0.7,1.6,1.3
					c0.4,0.6,0.5,1.2,0.5,2c0,0.8-0.2,1.5-0.6,2c-0.4,0.6-0.9,1-1.7,1.3l2.4,3.5H213.4z M212.7,144.4c-0.4-0.4-1.1-0.5-1.9-0.5h-2.3
					v4.2h2.3c0.9,0,1.5-0.2,1.9-0.5c0.4-0.4,0.7-0.9,0.7-1.6S213.1,144.8,212.7,144.4z"/>
				<path class="st0" d="M221.1,152.2c-0.9-0.5-1.5-1.1-2-1.9c-0.5-0.8-0.7-1.7-0.7-2.8s0.2-2,0.7-2.8c0.5-0.8,1.2-1.5,2-1.9
					c0.9-0.5,1.8-0.7,2.9-0.7c0.9,0,1.6,0.2,2.4,0.5s1.3,0.7,1.8,1.3l-1.3,1.2c-0.8-0.8-1.7-1.2-2.8-1.2c-0.7,0-1.4,0.2-1.9,0.5
					c-0.6,0.3-1,0.8-1.3,1.3c-0.3,0.6-0.5,1.2-0.5,1.9s0.2,1.3,0.5,1.9c0.3,0.6,0.8,1,1.3,1.3c0.6,0.3,1.2,0.5,1.9,0.5
					c1.1,0,2-0.4,2.8-1.2l1.3,1.2c-0.5,0.6-1.1,1-1.8,1.3c-0.7,0.3-1.5,0.5-2.4,0.5C222.9,152.9,221.9,152.6,221.1,152.2z"/>
				<path class="st0" d="M241,142.2v10.5h-2v-4.5h-5.4v4.5h-2v-10.5h2v4.3h5.4v-4.3H241z"/>
				<path class="st0" d="M146.5,163.2h2v10.5h-2V163.2z"/>
				<path class="st0" d="M162.3,163.2v10.5h-1.6l-5.8-7.1v7.1h-1.9v-10.5h1.6l5.8,7.1v-7.1H162.3z"/>
				<path class="st0" d="M168.7,164.8v3.2h5.1v1.7h-5.1v4h-2v-10.5h7.7v1.6H168.7z"/>
				<path class="st0" d="M184.8,173.7l-2.1-3.1c-0.1,0-0.2,0-0.4,0h-2.4v3.1h-2v-10.5h4.3c0.9,0,1.7,0.2,2.4,0.5s1.2,0.7,1.6,1.3
					c0.4,0.6,0.5,1.2,0.5,2c0,0.8-0.2,1.5-0.6,2c-0.4,0.6-0.9,1-1.7,1.3l2.4,3.5H184.8z M184.1,165.4c-0.4-0.4-1.1-0.5-1.9-0.5h-2.3
					v4.2h2.3c0.9,0,1.5-0.2,1.9-0.5c0.4-0.4,0.7-0.9,0.7-1.6S184.5,165.8,184.1,165.4z"/>
				<path class="st0" d="M197.4,171.3h-5.2l-1,2.4h-2l4.7-10.5h1.9l4.7,10.5h-2L197.4,171.3z M196.7,169.8l-2-4.6l-2,4.6H196.7z"/>
				<path class="st0" d="M204.4,173.5c-0.8-0.2-1.4-0.5-1.8-0.9l0.7-1.5c0.4,0.3,1,0.6,1.6,0.8c0.6,0.2,1.3,0.3,1.9,0.3
					c0.8,0,1.4-0.1,1.7-0.4s0.6-0.6,0.6-1c0-0.3-0.1-0.5-0.3-0.7c-0.2-0.2-0.5-0.3-0.8-0.5c-0.3-0.1-0.8-0.2-1.3-0.4
					c-0.8-0.2-1.4-0.4-1.9-0.6c-0.5-0.2-0.9-0.5-1.3-0.9c-0.4-0.4-0.5-1-0.5-1.6c0-0.6,0.2-1.1,0.5-1.6c0.3-0.5,0.8-0.9,1.4-1.1
					c0.6-0.3,1.4-0.4,2.3-0.4c0.6,0,1.3,0.1,1.9,0.2s1.2,0.4,1.6,0.7l-0.6,1.5c-0.5-0.3-0.9-0.5-1.4-0.6c-0.5-0.1-1-0.2-1.5-0.2
					c-0.8,0-1.3,0.1-1.7,0.4c-0.4,0.3-0.6,0.6-0.6,1c0,0.3,0.1,0.5,0.3,0.7c0.2,0.2,0.5,0.3,0.8,0.5s0.8,0.2,1.3,0.4
					c0.8,0.2,1.4,0.4,1.9,0.6s0.9,0.5,1.3,0.9c0.4,0.4,0.5,0.9,0.5,1.6c0,0.6-0.2,1.1-0.5,1.6c-0.3,0.5-0.8,0.8-1.4,1.1
					c-0.6,0.3-1.4,0.4-2.3,0.4C205.9,173.9,205.1,173.7,204.4,173.5z"/>
				<path class="st0" d="M216.5,164.9H213v-1.7h8.9v1.7h-3.5v8.8h-2V164.9z"/>
				<path class="st0" d="M231.9,173.7l-2.1-3.1c-0.1,0-0.2,0-0.4,0H227v3.1h-2v-10.5h4.3c0.9,0,1.7,0.2,2.4,0.5s1.2,0.7,1.6,1.3
					c0.4,0.6,0.5,1.2,0.5,2c0,0.8-0.2,1.5-0.6,2c-0.4,0.6-0.9,1-1.7,1.3l2.4,3.5H231.9z M231.2,165.4c-0.4-0.4-1.1-0.5-1.9-0.5H227
					v4.2h2.3c0.9,0,1.5-0.2,1.9-0.5c0.4-0.4,0.7-0.9,0.7-1.6S231.7,165.8,231.2,165.4z"/>
				<path class="st0" d="M238.8,172.6c-0.8-0.8-1.2-2-1.2-3.5v-5.9h1.9v5.8c0,2.1,0.9,3.1,2.7,3.1c1.8,0,2.7-1,2.7-3.1v-5.8h1.9v5.9
					c0,1.5-0.4,2.7-1.2,3.5c-0.8,0.8-1.9,1.2-3.4,1.2S239.6,173.5,238.8,172.6z"/>
				<path class="st0" d="M253.1,173.2c-0.9-0.5-1.5-1.1-2-1.9c-0.5-0.8-0.7-1.7-0.7-2.8s0.2-2,0.7-2.8c0.5-0.8,1.2-1.5,2-1.9
					c0.9-0.5,1.8-0.7,2.9-0.7c0.9,0,1.6,0.2,2.4,0.5s1.3,0.7,1.8,1.3l-1.3,1.2c-0.8-0.8-1.7-1.2-2.8-1.2c-0.7,0-1.4,0.2-1.9,0.5
					c-0.6,0.3-1,0.8-1.3,1.3c-0.3,0.6-0.5,1.2-0.5,1.9s0.2,1.3,0.5,1.9c0.3,0.6,0.8,1,1.3,1.3c0.6,0.3,1.2,0.5,1.9,0.5
					c1.1,0,2-0.4,2.8-1.2l1.3,1.2c-0.5,0.6-1.1,1-1.8,1.3c-0.7,0.3-1.5,0.5-2.4,0.5C255,173.9,254,173.6,253.1,173.2z"/>
				<path class="st0" d="M265.7,164.9h-3.5v-1.7h8.9v1.7h-3.5v8.8h-2V164.9z"/>
				<path class="st0" d="M275.2,172.6c-0.8-0.8-1.2-2-1.2-3.5v-5.9h1.9v5.8c0,2.1,0.9,3.1,2.7,3.1c1.8,0,2.7-1,2.7-3.1v-5.8h1.9v5.9
					c0,1.5-0.4,2.7-1.2,3.5c-0.8,0.8-1.9,1.2-3.4,1.2S276,173.5,275.2,172.6z"/>
				<path class="st0" d="M294.4,173.7l-2.1-3.1c-0.1,0-0.2,0-0.4,0h-2.4v3.1h-2v-10.5h4.3c0.9,0,1.7,0.2,2.4,0.5s1.2,0.7,1.6,1.3
					c0.4,0.6,0.5,1.2,0.5,2c0,0.8-0.2,1.5-0.6,2c-0.4,0.6-0.9,1-1.7,1.3l2.4,3.5H294.4z M293.7,165.4c-0.4-0.4-1.1-0.5-1.9-0.5h-2.3
					v4.2h2.3c0.9,0,1.5-0.2,1.9-0.5c0.4-0.4,0.7-0.9,0.7-1.6S294.2,165.8,293.7,165.4z"/>
				<path class="st0" d="M308.1,172.1v1.6h-7.9v-10.5h7.7v1.6h-5.7v2.7h5.1v1.6h-5.1v2.9H308.1z"/>
				<path class="st0" d="M155.8,184.2v10.5h-1.6l-5.8-7.1v7.1h-1.9v-10.5h1.6l5.8,7.1v-7.1H155.8z"/>
				<path class="st0" d="M168.2,193.1v1.6h-7.9v-10.5h7.7v1.6h-5.7v2.7h5.1v1.6h-5.1v2.9H168.2z"/>
				<path class="st0" d="M174.1,185.9h-3.5v-1.7h8.9v1.7h-3.5v8.8h-2V185.9z"/>
				<path class="st0" d="M197.9,184.2l-3.5,10.5h-2.1l-2.6-7.8l-2.6,7.8H185l-3.5-10.5h2l2.6,8l2.7-8h1.8l2.7,8l2.7-8H197.9z"/>
				<path class="st0" d="M203,194.2c-0.9-0.5-1.5-1.1-2-1.9c-0.5-0.8-0.7-1.7-0.7-2.8s0.2-1.9,0.7-2.8c0.5-0.8,1.2-1.5,2-1.9
					c0.9-0.5,1.8-0.7,2.9-0.7c1.1,0,2,0.2,2.9,0.7c0.9,0.5,1.5,1.1,2,1.9c0.5,0.8,0.7,1.7,0.7,2.8s-0.2,2-0.7,2.8
					c-0.5,0.8-1.2,1.5-2,1.9c-0.9,0.5-1.8,0.7-2.9,0.7C204.9,194.9,203.9,194.6,203,194.2z M207.8,192.7c0.6-0.3,1-0.8,1.3-1.3
					c0.3-0.6,0.5-1.2,0.5-1.9s-0.2-1.3-0.5-1.9c-0.3-0.6-0.8-1-1.3-1.3c-0.6-0.3-1.2-0.5-1.9-0.5c-0.7,0-1.3,0.2-1.9,0.5
					c-0.6,0.3-1,0.8-1.3,1.3c-0.3,0.6-0.5,1.2-0.5,1.9s0.2,1.3,0.5,1.9c0.3,0.6,0.8,1,1.3,1.3c0.6,0.3,1.2,0.5,1.9,0.5
					C206.6,193.1,207.2,193,207.8,192.7z"/>
				<path class="st0" d="M222.2,194.7l-2.1-3.1c-0.1,0-0.2,0-0.4,0h-2.4v3.1h-2v-10.5h4.3c0.9,0,1.7,0.2,2.4,0.5s1.2,0.7,1.6,1.3
					c0.4,0.6,0.5,1.2,0.5,2c0,0.8-0.2,1.5-0.6,2c-0.4,0.6-0.9,1-1.7,1.3l2.4,3.5H222.2z M221.5,186.4c-0.4-0.4-1.1-0.5-1.9-0.5h-2.3
					v4.2h2.3c0.9,0,1.5-0.2,1.9-0.5c0.4-0.4,0.7-0.9,0.7-1.6S221.9,186.7,221.5,186.4z"/>
				<path class="st0" d="M231.5,190.3l-1.7,1.7v2.7h-2v-10.5h2v5.4l5.2-5.4h2.2l-4.4,4.7l4.7,5.8h-2.3L231.5,190.3z"/>
			</g>
		</g>
	</g>
	<g>
		<path class="st0" d="M82.2,99.9c-1,0-1.8,0.8-1.8,1.8c0,1,0.8,1.8,1.8,1.8c1,0,1.8-0.8,1.8-1.8C84,100.7,83.2,99.9,82.2,99.9z"/>
		<circle class="st0" cx="76.6" cy="101.7" r="1.8"/>
		<path class="st0" d="M71.1,99.9c-1,0-1.8,0.8-1.8,1.8c0,1,0.8,1.8,1.8,1.8c1,0,1.8-0.8,1.8-1.8C72.9,100.7,72.1,99.9,71.1,99.9z"
			/>
		<path class="st0" d="M69.3,68.1c-1,0-1.8,0.8-1.8,1.8V75c0,1,0.8,1.8,1.8,1.8c1,0,1.8-0.8,1.8-1.8v-5.1
			C71.1,68.9,70.3,68.1,69.3,68.1z"/>
		<rect x="72.8" y="68.3" class="st0" width="3.1" height="3.1"/>
		<rect x="62.7" y="68.3" class="st0" width="3.1" height="3.1"/>
		<rect x="57.6" y="68.3" class="st0" width="3.1" height="3.1"/>
		<path class="st0" d="M105.1,103.5c1,0,1.8-0.8,1.8-1.8V98c0-1-0.8-1.8-1.8-1.8s-1.8,0.8-1.8,1.8v3.6
			C103.3,102.7,104.1,103.5,105.1,103.5z"/>
		<rect x="109.2" y="96.4" class="st0" width="3.1" height="3.1"/>
		<rect x="103.5" y="86.3" class="st0" width="3.1" height="3.1"/>
		<rect x="103.5" y="91.3" class="st0" width="3.1" height="3.1"/>
		<path class="st0" d="M77.3,59.3c1.1,0,2.1-0.3,3.1-0.9l-1.9-3.1c-1.1,0.7-2.5,0.3-3.2-0.8c-0.3-0.5-0.4-1.1-0.3-1.7
			c0.1-0.6,0.5-1.1,1-1.4l-1.9-3.1c-1.3,0.8-2.3,2.1-2.6,3.7s-0.1,3.1,0.7,4.5C73.4,58.3,75.3,59.3,77.3,59.3z"/>
		<path class="st0" d="M78.5,53.8c0.8,0,1.4-0.6,1.4-1.4c0-0.8-0.6-1.4-1.4-1.4s-1.4,0.6-1.4,1.4C77.1,53.2,77.7,53.8,78.5,53.8z"/>
		<path class="st0" d="M85.9,55.2c0.8,0,1.4-0.6,1.4-1.4c0-0.8-0.6-1.4-1.4-1.4c-0.8,0-1.4,0.6-1.4,1.4
			C84.5,54.6,85.2,55.2,85.9,55.2z"/>
		<path class="st0" d="M83.1,62.2c0.8,0,1.4-0.6,1.4-1.4c0-0.8-0.6-1.4-1.4-1.4c-0.8,0-1.4,0.6-1.4,1.4
			C81.6,61.5,82.3,62.2,83.1,62.2z"/>
		<path class="st0" d="M86.9,64.8c0,0.8,0.6,1.4,1.4,1.4c0.8,0,1.4-0.6,1.4-1.4c0-0.8-0.6-1.4-1.4-1.4C87.5,63.3,86.9,64,86.9,64.8z
			"/>
		<path class="st0" d="M89.7,60.4c0.8,0,1.4-0.6,1.4-1.4c0-0.8-0.6-1.4-1.4-1.4c-0.8,0-1.4,0.6-1.4,1.4
			C88.3,59.8,88.9,60.4,89.7,60.4z"/>
		<path class="st0" d="M69.5,46.1c-0.8,0-1.4,0.6-1.4,1.4s0.6,1.4,1.4,1.4c0.8,0,1.4-0.6,1.4-1.4S70.2,46.1,69.5,46.1z"/>
		<path class="st0" d="M72.7,40c0-0.8-0.6-1.4-1.4-1.4c-0.8,0-1.4,0.6-1.4,1.4c0,0.8,0.6,1.4,1.4,1.4C72.1,41.5,72.7,40.8,72.7,40z"
			/>
		<path class="st0" d="M74,46.2c0.8,0,1.4-0.6,1.4-1.4c0-0.8-0.6-1.4-1.4-1.4c-0.8,0-1.4,0.6-1.4,1.4C72.6,45.6,73.2,46.2,74,46.2z"
			/>
		<path class="st0" d="M49.4,130c-5.7,0-10.2,5.3-10.4,5.6l2.8,2.3c0,0,3.6-4.2,7.6-4.2c4,0,7.6,4.2,7.6,4.2l2.8-2.3
			C59.6,135.4,55.1,130,49.4,130z"/>
		<path class="st0" d="M49.3,135c-1.5,0-2.7,1.2-2.7,2.7c0,1.5,1.2,2.7,2.7,2.7s2.7-1.2,2.7-2.7C52.1,136.3,50.9,135,49.3,135z"/>
		<path class="st0" d="M98.3,59.4L90.4,44l-1.8-3.5l-4.1-8l-1.8-3.5l-6.5-12.6L53.3,61l-1.9,3.6L44,79l-1.9,3.6l-19.4,37.8
			l53.5,98.2l6-11.1l2-3.8l16.7-30.6l2.1-3.8l26.7-49l-29.3-57L98.3,59.4z M80.9,33.4l4.8,9.4c-2.4,0.8-5.2-0.2-6.4-2.6
			C78.1,37.8,78.8,35,80.9,33.4z M76.2,24.2l3.1,6c-3.9,2.4-5.3,7.5-3.2,11.7c1.6,3.1,4.7,4.8,7.9,4.8c1.1,0,2.3-0.2,3.3-0.7
			l8.9,17.4L92.1,72L91,68l-3.5,1l2.2,7.8l-4.6,9.3H85l-3.6-6.9c0.5-0.9,0.8-2,0.8-3.1v-8.5c0-3.6-2.9-6.5-6.5-6.5h-2.8l-8-14.6
			L76.2,24.2z M80.9,86.1h-6v-3.5h0.7c1.1,0,2.1-0.3,3-0.8L80.9,86.1z M62.8,50.3L68.7,61H57.3L62.8,50.3z M52.6,70.2v1.2h3.1v-3.1
			h-2.1l1.9-3.7h20.2c1.6,0,2.9,1.3,2.9,2.9v8.5c0,1.6-1.3,2.9-2.9,2.9H48.1L52.6,70.2z M71.3,82.6v3.5h-4.2v-3.5H71.3z M63.5,82.6
			v3.5h-4.2v-3.5H63.5z M55.7,82.6v3.5h-4.2v-3.5H55.7z M46.2,82.6h1.6v3.5h-3.4L46.2,82.6z M28.8,116.4L28.8,116.4l32.5,0.1v-3.6
			H30.6l1.5-2.9h25.4v-3.6H34l1.5-2.9h17.9v-3.6h-16l1.5-2.9H50v-3.6h-9.3l1.9-3.6h54.2v16.4h-1.9L88,93.4H57.7l14.1,26H27.3
			L28.8,116.4z M28.3,123h42l-20.5,39.5L28.3,123z M74.1,123.5L91,154.7l-10.3,18l-16.4-30.4L74.1,123.5z M76.2,211l-24.4-44.7
			l3.9-7.4l24.5,44.8L76.2,211z M82.2,199.9L57.7,155l4.6-8.9l18.3,34L93,158.4l5.9,10.9L82.2,199.9z M101,165.6l-2.6-4.8
			c1.6-0.3,3.5-0.1,4.8,0.7c0,0,0.1,0,0.1,0L101,165.6z M104.9,158.4c-2.3-1.3-5.6-1.6-8.3-0.8l-1.8-3.3c0.6-0.2,1.1-0.4,1.6-0.7
			c1.8-1,4.9-1,6.6,0c1.1,0.6,2.4,1,3.8,1.2L104.9,158.4z M108.7,151.3c-1.4,0.1-2.8-0.2-3.9-0.8c-2.9-1.7-7.3-1.7-10.2,0
			c-0.5,0.3-1,0.5-1.6,0.6l-2.3-4.2c2,0.1,4.1-0.3,5.6-1.3c1.8-1,4.9-1,6.6,0c2.3,1.3,5.6,1.6,8.2,0.8L108.7,151.3z M114,141.6
			c-0.9,0.2-1.7,0.5-2.4,1c-1.8,1-4.9,1-6.6,0c-2.9-1.7-7.3-1.7-10.2,0c-1.6,0.9-4.2,1-6,0.3l-2.9-5.4c0.2,0.1,0.4,0.2,0.5,0.3
			c2.9,1.7,7.3,1.7,10.2,0c1.8-1,4.9-1,6.6,0c2.9,1.7,7.3,1.7,10.2,0c0.9-0.5,2-0.8,3.2-0.8L114,141.6z M118.4,133.6
			c-2.4-0.4-5,0-6.8,1.1c-1.8,1-4.9,1-6.6,0c-2.9-1.7-7.3-1.7-10.2,0c-1.8,1-4.9,1-6.6,0c-1.3-0.7-2.9-1.2-4.5-1.2l-2.3-4.2
			c1.7-0.4,3.7-0.2,5,0.6c2.9,1.7,7.3,1.7,10.2,0c1.8-1,4.9-1,6.6,0c2.9,1.7,7.3,1.7,10.2,0c1.8-1,4.9-1,6.6,0
			c0.1,0.1,0.2,0.1,0.3,0.2L118.4,133.6z M122,127c-0.1,0-0.2-0.1-0.2-0.1c-2.9-1.7-7.3-1.7-10.2,0c-1.8,1-4.9,1-6.6,0
			c-2.9-1.7-7.3-1.7-10.2,0c-1.8,1-4.9,1-6.6,0c-2.3-1.4-5.8-1.6-8.5-0.8l-1.8-3.3c0.7-0.2,1.3-0.5,1.9-0.8c1.8-1,4.9-1,6.6,0
			c2.9,1.7,7.3,1.7,10.2,0c1.8-1,4.9-1,6.6,0c2.9,1.7,7.3,1.7,10.2,0c1.8-1,4.9-1,6.6,0c1.2,0.7,2.6,1.1,4.1,1.2L122,127z
			 M124.6,118.5l0.6,1.2c-1.3,0-2.6-0.2-3.5-0.8c-2.9-1.7-7.3-1.7-10.2,0c-1.8,1-4.9,1-6.6,0c-2.9-1.7-7.3-1.7-10.2,0
			c-1.8,1-4.9,1-6.6,0c-2.9-1.7-7.3-1.7-10.2,0c-0.5,0.3-1.1,0.5-1.8,0.6l-2.7-4.9L63.8,97h22.1l6.9,12.8h27.4L124.6,118.5z
			 M110.7,91.3h-1.5v3.1h3.1v0l6.1,11.8h-17.9V82.9h6L110.7,91.3z M96.8,79.3v6.8h-7.6l3.9-7.9l7.1-2l-1-3.5l-4,1.1l3.2-6.4
			l6.1,11.9H96.8z"/>
	</g>
</g>
</svg>
